<svg width="452" height="345" viewBox="0 0 452 345" fill="none" xmlns="http://www.w3.org/2000/svg">
	<path d="M277.45 321.281C272.268 323.482 264.779 325.311 255.744 326.583C246.708 327.856 236.447 328.526 226 328.526C215.553 328.526 205.292 327.856 196.256 326.583C187.221 325.311 179.732 323.482 174.55 321.281H2V328.527C2 332.371 8.29331 336.057 19.4955 338.775C30.6977 341.493 45.8911 343.02 61.7333 343.02H390.267C406.109 343.02 421.302 341.493 432.504 338.775C443.707 336.057 450 332.371 450 328.527V321.281H277.45Z" stroke="black" stroke-width="3" stroke-linecap="round" stroke-linejoin="round"/>
	<path d="M433.932 320.336V78.0908C433.932 71.4634 428.559 66.0908 421.932 66.0908H31.957C25.3296 66.0908 19.957 71.4634 19.957 78.0908V320.336" stroke="black" stroke-width="3"/>
	<rect x="33.5742" y="2.27734" width="390.037" height="306.037" rx="18.5" fill="white" stroke="black" stroke-width="3"/>
	<path d="M144.545 131.806C144.545 129.31 146.177 127.774 148.673 127.774H152.705V117.694H146.561C138.881 117.694 133.985 122.398 133.985 130.174V152.542C133.985 155.038 132.257 156.574 129.761 156.574H128.033V167.038H129.761C132.257 167.038 133.985 168.574 133.985 171.07V193.63C133.985 201.406 138.881 206.014 146.561 206.014H152.705V195.934H148.673C146.177 195.934 144.545 194.398 144.545 191.902V171.454C144.545 166.654 142.337 163.198 138.977 162.142V161.566C142.337 160.51 144.545 156.958 144.545 152.158V131.806ZM324.292 156.574C321.7 156.574 320.068 155.038 320.068 152.542V130.174C320.068 122.398 315.172 117.694 307.396 117.694H301.348V127.774H305.284C307.876 127.774 309.508 129.31 309.508 131.806V152.158C309.508 156.862 311.62 160.414 314.98 161.566V162.238C311.62 163.294 309.508 166.75 309.508 171.454V191.902C309.508 194.398 307.876 195.934 305.284 195.934H301.348V206.014H307.396C315.172 206.014 320.068 201.406 320.068 193.63V171.07C320.068 168.574 321.7 167.038 324.292 167.038H326.02V156.574H324.292Z" fill="#C9F73A"/>
	<path d="M198.614 145.726H198.134C194.966 141.118 189.302 137.854 181.91 137.758C168.182 137.662 158.39 148.222 158.39 163.006C158.39 177.982 168.47 188.35 181.91 188.158C189.398 188.158 194.966 184.702 198.134 179.902H198.614V186.814H209.558V139.102H198.614V145.726ZM184.118 177.598C175.382 177.598 169.526 171.166 169.526 162.91C169.526 154.654 175.382 148.222 184.118 148.222C192.758 148.222 198.518 154.75 198.518 162.91C198.518 170.974 192.758 177.598 184.118 177.598ZM249.106 137.758C241.906 137.854 236.146 141.118 232.882 145.726H232.402V139.102H221.458V206.014H232.402V179.902H232.882C236.05 184.702 241.81 188.158 249.106 188.158C262.546 188.35 272.626 177.982 272.626 163.006C272.626 148.222 262.834 137.662 249.106 137.758ZM246.898 177.598C238.258 177.598 232.498 170.974 232.498 162.91C232.498 154.75 238.258 148.222 246.898 148.222C255.634 148.222 261.49 154.654 261.49 162.91C261.49 171.166 255.634 177.598 246.898 177.598ZM281.645 117.694V132.286H292.685V117.694H281.645ZM281.645 139.102V186.814H292.685V139.102H281.645Z" fill="black"/>
	<circle cx="59.0367" cy="30.8511" r="6.22222" fill="#C9F73A"/>
	<circle cx="78.5933" cy="30.8511" r="6.22222" fill="#C9F73A"/>
	<circle cx="98.148" cy="30.8511" r="6.22222" fill="#C9F73A"/>
</svg>
