<svg id="Layer_1" enable-background="new 0 0 512.01 512.01" height="512" viewBox="0 0 512.01 512.01" width="512" xmlns="http://www.w3.org/2000/svg"><g><path d="m416.01 283.724h-30.102l-1.103 98.821h31.205c27.245 0 49.411-22.166 49.411-49.41 0-27.246-22.166-49.411-49.411-49.411z" fill="#ffcbbc"/><path d="m416.01 283.724h-30.102l-1.103 98.821h31.205c27.245 0 49.411-22.166 49.411-49.41 0-27.246-22.166-49.411-49.411-49.411z" fill="#f9a58b"/><path d="m126.095 283.724h-30.095c-27.245 0-49.411 22.166-49.411 49.411s22.166 49.41 49.411 49.41h31.241z" fill="#ffcbbc"/><path d="m392.494 190.2-4.394-7.129h-264.161l-4.394 7.129c-15.228 24.706-23.277 53.165-23.277 82.301v79.758c0 88.087 71.665 159.751 159.752 159.751s159.751-71.664 159.751-159.751v-79.757c0-29.137-8.049-57.597-23.277-82.302z" fill="#ffddce"/><path d="m392.494 190.2-4.394-7.129h-132.08v328.939c88.087 0 159.751-71.664 159.751-159.751v-79.757c0-29.137-8.049-57.597-23.277-82.302z" fill="#ffcbbc"/><ellipse cx="256.02" cy="148.311" fill="#e7f9fb" rx="148.311" ry="148.311" transform="matrix(.707 -.707 .707 .707 -29.885 224.472)"/><path d="m404.331 148.311c0-81.779-66.533-148.311-148.311-148.311v296.622c81.778 0 148.311-66.533 148.311-148.311z" fill="#bceaf9"/><path d="m166.008 315.678h40.687v30h-40.687z" fill="#ffcbbc"/><path d="m305.346 315.678h40.687v30h-40.687z" fill="#ffcbbc"/><path d="m305.346 315.678h40.687v30h-40.687z" fill="#f9a58b"/><g><path d="m289.235 445.547h-33.456c-21.976 0-41.464-14.779-47.393-35.94l28.888-8.094c2.315 8.263 9.924 14.034 18.505 14.034h33.456z" fill="#ffcbbc"/></g><path d="m256.02 415.547h33.215v30h-33.215z" fill="#f9a58b"/><path d="m345.606 140.685c-1.417-2.399-35.324-58.777-89.586-58.777s-88.169 56.378-89.586 58.777l-4.502 7.626 4.502 7.626c1.417 2.399 35.324 58.777 89.586 58.777s88.169-56.378 89.586-58.777l4.502-7.626z" fill="#fff"/><path d="m345.606 140.685c-1.417-2.399-35.324-58.777-89.586-58.777v132.807c54.262 0 88.169-56.378 89.586-58.777l4.502-7.626z" fill="#edf5ff"/><g><path d="m256.02 174.795c-14.604 0-26.485-11.88-26.485-26.484s11.881-26.485 26.485-26.485 26.485 11.881 26.485 26.485-11.881 26.484-26.485 26.484z" fill="#474f54"/></g><path d="m256.02 121.826v52.97c14.604 0 26.485-11.88 26.485-26.484s-11.881-26.486-26.485-26.486z" fill="#31383e"/></g></svg>