<?xml version="1.0" encoding="utf-8"?>
<!-- Generator: Adobe Illustrator 18.1.1, SVG Export Plug-In . SVG Version: 6.00 Build 0)  -->
<svg version="1.1" id="Layer_1" xmlns="http://www.w3.org/2000/svg" xmlns:xlink="http://www.w3.org/1999/xlink" x="0px" y="0px"
	 viewBox="-211 166 512 512" enable-background="new -211 166 512 512" xml:space="preserve" width="512" height="512">
<path fill="#5CCC0A" d="M281,226c-11,0-20,9-20,20v38.5C214.5,211.5,133.2,166,45,166c-68.4,0-132.7,26.6-181,75s-75,112.6-75,181
	c0,61.6,22.2,121,62.4,167.5c39.8,46,94.7,76.4,154.6,85.5c1,0.2,2,0.2,3.1,0.2c9.7,0,18.2-7.1,19.7-17c1.7-10.9-5.8-21.1-16.7-22.8
	c-104.3-16-183-107.8-183-213.5c0-119.1,96.9-216,216-216c76.8,0,147.4,40.9,185.9,106H195c-11,0-20,9-20,20s9,20,20,20h46
	c33.1,0,60-26.9,60-60v-46C301,235,292,226,281,226z"/>
<g>
	<g>
		<path fill="#5CCC0A" d="M285.8,535c1.9,1.9,5,1.9,6.9,0l6.9-6.9c1.9-1.9,1.9-5,0-6.9L284,505.8c-1.9-1.9-5-1.9-6.9,0l-6.9,6.9
			c-1.9,1.9-1.9,5,0,6.9l0.7,0.7l-4.8,4.8c-12.2-9.7-26.9-16.1-43.1-17.9v-8.8h5.3c2.7,0,4.8-2.2,4.8-4.8v-14.3
			c0-2.7-2.2-4.8-4.8-4.8h-30.8c-2.7,0-4.8,2.2-4.8,4.8v14.3c0,2.7,2.2,4.8,4.8,4.8h5.3v8.8c-16.2,1.9-31,8.3-43.1,17.9l-4.8-4.8
			l0.7-0.7c1.9-1.9,1.9-5,0-6.9l-6.9-6.9c-1.9-1.9-5-1.9-6.9,0l-15.5,15.5c-1.9,1.9-1.9,5,0,6.9l6.9,6.9c1.9,1.9,5,1.9,6.9,0
			l0.7-0.7l4.8,4.8c-11.5,14.6-18.4,33-18.4,53c0,47.3,38.5,85.8,85.8,85.8s85.8-38.5,85.8-85.8c0-20-6.9-38.4-18.4-53l4.8-4.8
			L285.8,535z M212.9,658.1c-36.3,0-65.9-29.6-65.9-65.9c0-36.3,29.6-65.9,65.9-65.9s65.9,29.6,65.9,65.9
			C278.8,628.6,249.2,658.1,212.9,658.1z"/>
		<path fill="#5CCC0A" d="M68.6,615.2c-4.7,0-8.5,3.8-8.5,8.5c0,4.7,3.8,8.5,8.5,8.5h46.1c0.9,0,1.8-0.2,2.6-0.4
			c-2.2-5.3-4-10.9-5.3-16.6L68.6,615.2L68.6,615.2z"/>
		<path fill="#5CCC0A" d="M117.2,552.8c-0.8-0.2-1.6-0.4-2.5-0.4H42.2c-4.7,0-8.5,3.8-8.5,8.5c0,4.7,3.8,8.5,8.5,8.5H112
			C113.2,563.8,115,558.2,117.2,552.8z"/>
		<path fill="#5CCC0A" d="M109.4,592.2c0-2.9,0.2-5.7,0.4-8.5H54.1c-4.7,0-8.5,3.8-8.5,8.5s3.8,8.5,8.5,8.5h55.7
			C109.6,598,109.4,595.1,109.4,592.2z"/>
		<path fill="#5CCC0A" d="M254.3,567.7c-1.4-2.4-4.4-3.3-6.9-2l-29.7,14.5c-3.7-1.5-8-1.3-11.6,0.8c-6.2,3.7-8.3,11.7-4.6,17.9
			c3.7,6.2,11.7,8.3,17.9,4.6c3.7-2.2,5.9-5.9,6.3-9.8l27.1-19C255.1,573.1,255.8,570.1,254.3,567.7z M218.4,593.7
			c-0.8,3.1-4,4.9-7,4.1c-3.1-0.8-4.9-4-4.1-7c0.8-3.1,4-4.9,7-4.1C217.4,587.5,219.2,590.6,218.4,593.7z"/>
		<path fill="#5CCC0A" d="M231.5,559.5c2.6,1.5,5.9,0.5,7.3-2c1.5-2.6,0.5-5.9-2-7.3c-2.6-1.5-5.8-0.5-7.3,2c-1,1.8-0.9,3.8,0.1,5.4
			C230,558.3,230.6,559,231.5,559.5z"/>
		<path fill="#5CCC0A" d="M212.6,554.6c3,0,5.3-2.4,5.3-5.4s-2.4-5.3-5.4-5.3c-3,0-5.3,2.4-5.3,5.4c0,1,0.3,1.9,0.7,2.7
			C208.9,553.6,210.6,554.7,212.6,554.6z"/>
		<path fill="#5CCC0A" d="M213.3,630L213.3,630c-3,0.1-5.3,2.5-5.3,5.4c0,1,0.3,1.9,0.7,2.6c0.9,1.6,2.7,2.7,4.7,2.6
			c3-0.1,5.3-2.5,5.3-5.4C218.7,632.4,216.3,630,213.3,630z"/>
		<path fill="#5CCC0A" d="M232.1,624.8c-2.5,1.5-3.4,4.8-1.9,7.3l0,0c1.5,2.6,4.8,3.4,7.4,1.9c2.5-1.5,3.4-4.8,1.9-7.3
			C237.9,624.1,234.6,623.3,232.1,624.8z"/>
		<path fill="#5CCC0A" d="M253,608.9c-2.6-1.4-5.9-0.5-7.3,2c-1,1.8-0.9,3.7,0.1,5.4c0.4,0.8,1.2,1.5,2,1.9c2.6,1.5,5.9,0.5,7.3-2
			C256.5,613.6,255.6,610.3,253,608.9z"/>
		<path fill="#5CCC0A" d="M175.2,592.7c0-3-2.5-5.3-5.4-5.3c-3,0.1-5.3,2.5-5.3,5.4c0,1,0.3,1.9,0.7,2.6c0.9,1.6,2.7,2.7,4.7,2.6
			C172.9,598.1,175.2,595.7,175.2,592.7z"/>
		<path fill="#5CCC0A" d="M173.1,609.6c-2.5,1.5-3.4,4.8-1.9,7.3l0,0c1.5,2.5,4.8,3.4,7.4,1.9c2.5-1.5,3.3-4.8,1.9-7.4
			C179,609,175.7,608.1,173.1,609.6z"/>
		<path fill="#5CCC0A" d="M250.6,592c0,1,0.3,1.9,0.8,2.7c0.9,1.6,2.7,2.6,4.7,2.6c3,0,5.3-2.5,5.3-5.4c0-3-2.4-5.3-5.4-5.3
			C253,586.6,250.6,589.1,250.6,592z"/>
		<path fill="#5CCC0A" d="M172.8,575.9c2.6,1.5,5.9,0.5,7.3-2l0,0c1.4-2.6,0.5-5.8-2.1-7.3c-2.6-1.4-5.8-0.5-7.3,2
			c-0.9,1.7-0.9,3.7,0.1,5.4C171.2,574.7,171.9,575.4,172.8,575.9z"/>
		<path fill="#5CCC0A" d="M193.7,559.9C193.7,559.9,193.7,559.9,193.7,559.9c0.1-0.1,0.1-0.1,0.1-0.1c0,0,0,0,0.1,0
			c2.5-1.5,3.3-4.8,1.9-7.3c-1.5-2.6-4.8-3.4-7.4-1.9c0,0-0.1,0-0.1,0.1c-0.1,0-0.1,0.1-0.1,0.1c-2.5,1.5-3.4,4.8-1.9,7.3l0,0
			C187.8,560.6,191.1,561.4,193.7,559.9z"/>
		<path fill="#5CCC0A" d="M194.4,625.2c-2.6-1.5-5.9-0.5-7.3,2c-1,1.8-0.9,3.8,0.1,5.4c0.4,0.8,1.2,1.5,2,2c2.6,1.4,5.9,0.5,7.3-2
			C197.9,629.9,197,626.6,194.4,625.2z"/>
	</g>
</g>
<g>
	<path fill="#5CCC0A" d="M-64.3,405.2l35.1-37.2c4.8-5.1,5.3-13.1,1.3-18.8l-3.7-5.2c-2.5-3.5-6.2-5.5-10.3-5.5
		c-3.5,0-6.7,1.4-9.2,4l-50.8,53c-5.1,5.3-5.1,13.9,0,19.2l50.8,53c2.5,2.6,5.8,4,9.2,4l0,0c4.1,0,7.9-2,10.3-5.5l3.7-5.2
		c4-5.7,3.5-13.8-1.3-18.8L-64.3,405.2z"/>
	<path fill="#5CCC0A" d="M60.3,334.9h-6.8c-6.6,0-12.9,4.6-15,10.8L-1,459.2c-1.4,3.9-0.8,8.2,1.4,11.4c2.2,3.2,5.9,5.3,10,5.3h6.8
		c6.5,0,12.9-4.8,15-10.9l39.5-113.6c1.4-3.9,0.8-8.1-1.4-11.2C68.1,336.9,64.4,334.9,60.3,334.9z"/>
	<path fill="#5CCC0A" d="M121.9,342.6c-2.5-2.6-5.8-4-9.2-4c-4.1,0-7.9,2-10.3,5.5l-3.7,5.2c-4,5.7-3.5,13.8,1.3,18.8l35.1,37.2
		L100,442.4c-4.8,5.1-5.3,13.1-1.3,18.8l3.7,5.2c2.5,3.5,6.2,5.5,10.3,5.5h0c3.5,0,6.7-1.4,9.2-4l50.8-53c5.1-5.3,5.1-13.9,0-19.2
		L121.9,342.6z"/>
</g>
</svg>
